<svg width="371" height="84" viewBox="0 0 371 84" fill="none" xmlns="http://www.w3.org/2000/svg">
<path d="M0 60V0.999997H3V60H0ZM6 60V0.999997H12V60H6ZM21 60V0.999997H24V60H21ZM33.0078 60V0.999997H36.0078V60H33.0078ZM39.0078 60V0.999997H42.0078V60H39.0078ZM51.0078 60V0.999997H57.0078V60H51.0078ZM66.0156 60V0.999997H72.0156V60H66.0156ZM81.0156 60V0.999997H84.0156V60H81.0156ZM87.0156 60V0.999997H96.0156V60H87.0156ZM99.0234 60V0.999997H102.023V60H99.0234ZM105.023 60V0.999997H111.023V60H105.023ZM120.023 60V0.999997H129.023V60H120.023ZM132.031 60V0.999997H135.031V60H132.031ZM144.031 60V0.999997H150.031V60H144.031ZM153.031 60V0.999997H156.031V60H153.031ZM165.039 60V0.999997H171.039V60H165.039ZM180.039 60V0.999997H183.039V60H180.039ZM186.039 60V0.999997H195.039V60H186.039ZM198.047 60V0.999997H204.047V60H198.047ZM207.047 60V0.999997H213.047V60H207.047ZM219.047 60V0.999997H225.047V60H219.047ZM231.055 60V0.999997H237.055V60H231.055ZM240.055 60V0.999997H249.055V60H240.055ZM252.055 60V0.999997H255.055V60H252.055ZM264.062 60V0.999997H267.063V60H264.062ZM273.063 60V0.999997H279.063V60H273.063ZM291.063 60V0.999997H294.063V60H291.063ZM297.07 60V0.999997H300.07V60H297.07ZM309.07 60V0.999997H321.07V60H309.07ZM324.07 60V0.999997H327.07V60H324.07ZM330.078 60V0.999997H333.078V60H330.078ZM336.078 60V0.999997H339.078V60H336.078ZM345.078 60V0.999997H357.078V60H345.078Z" fill="white"/>
<path d="M4.96 83V69H10.44C11.44 69 12.34 69.1667 13.14 69.5C13.9533 69.8333 14.6467 70.3133 15.22 70.94C15.7933 71.5667 16.2333 72.3067 16.54 73.16C16.8467 74.0133 17 74.96 17 76C17 77.04 16.8467 77.9933 16.54 78.86C16.2333 79.7133 15.7933 80.4533 15.22 81.08C14.66 81.6933 13.9733 82.1667 13.16 82.5C12.3467 82.8333 11.44 83 10.44 83H4.96ZM7.12 81.14L7.06 80.92H10.34C11.0467 80.92 11.6733 80.8067 12.22 80.58C12.78 80.3533 13.2467 80.0333 13.62 79.62C14.0067 79.1933 14.3 78.6733 14.5 78.06C14.7 77.4467 14.8 76.76 14.8 76C14.8 75.24 14.7 74.56 14.5 73.96C14.3 73.3467 14.0067 72.8267 13.62 72.4C13.2333 71.9733 12.7667 71.6467 12.22 71.42C11.6733 71.1933 11.0467 71.08 10.34 71.08H7L7.12 70.9V81.14ZM38.4703 83L43.8903 69H46.0903L51.4703 83H49.1703L45.9703 74.56C45.9303 74.4667 45.8503 74.24 45.7303 73.88C45.6236 73.52 45.497 73.12 45.3503 72.68C45.2036 72.24 45.0703 71.84 44.9503 71.48C44.8303 71.1067 44.7503 70.8667 44.7103 70.76L45.1703 70.74C45.0903 70.9667 44.9903 71.2533 44.8703 71.6C44.7636 71.9467 44.6436 72.3133 44.5103 72.7C44.3903 73.0867 44.2703 73.4533 44.1503 73.8C44.0303 74.1333 43.9303 74.4133 43.8503 74.64L40.6703 83H38.4703ZM40.8703 79.52L41.6703 77.44H48.0303L48.9503 79.52H40.8703ZM74.3342 83V69H80.2942C81.0942 69 81.8276 69.2 82.4942 69.6C83.1742 69.9867 83.7142 70.52 84.1142 71.2C84.5142 71.8667 84.7142 72.62 84.7142 73.46C84.7142 74.22 84.5142 74.9267 84.1142 75.58C83.7142 76.2333 83.1809 76.76 82.5142 77.16C81.8476 77.5467 81.1076 77.74 80.2942 77.74H76.4942V83H74.3342ZM82.6542 83L79.0942 76.68L81.3142 76.18L85.2742 83.02L82.6542 83ZM76.4942 75.66H80.4942C80.8809 75.66 81.2276 75.5667 81.5342 75.38C81.8409 75.18 82.0809 74.9133 82.2542 74.58C82.4276 74.2333 82.5142 73.8533 82.5142 73.44C82.5142 72.9733 82.4009 72.5667 82.1742 72.22C81.9609 71.86 81.6542 71.58 81.2542 71.38C80.8676 71.18 80.4276 71.08 79.9342 71.08H76.4942V75.66ZM110.44 78.76L110.32 76.34L117.66 69H120.5L110.44 78.76ZM108.64 83V69H110.8V83H108.64ZM117.92 83L112.56 75.84L114.16 74.46L120.62 83H117.92ZM143.689 83V69H152.509V71.08H145.849V80.92H152.509V83H143.689ZM144.669 76.86V74.78H151.409V76.86H144.669ZM176.374 83V69H182.334C183.134 69 183.867 69.2 184.534 69.6C185.214 69.9867 185.754 70.52 186.154 71.2C186.554 71.8667 186.754 72.62 186.754 73.46C186.754 74.22 186.554 74.9267 186.154 75.58C185.754 76.2333 185.221 76.76 184.554 77.16C183.887 77.5467 183.147 77.74 182.334 77.74H178.534V83H176.374ZM184.694 83L181.134 76.68L183.354 76.18L187.314 83.02L184.694 83ZM178.534 75.66H182.534C182.921 75.66 183.267 75.5667 183.574 75.38C183.881 75.18 184.121 74.9133 184.294 74.58C184.467 74.2333 184.554 73.8533 184.554 73.44C184.554 72.9733 184.441 72.5667 184.214 72.22C184.001 71.86 183.694 71.58 183.294 71.38C182.907 71.18 182.467 71.08 181.974 71.08H178.534V75.66ZM241.006 83.2C240.246 83.2 239.539 83.1 238.886 82.9C238.246 82.7 237.659 82.4 237.126 82C236.606 81.5867 236.139 81.08 235.726 80.48L237.206 78.78C237.859 79.7133 238.486 80.36 239.086 80.72C239.686 81.08 240.399 81.26 241.226 81.26C241.732 81.26 242.192 81.18 242.606 81.02C243.019 80.86 243.346 80.64 243.586 80.36C243.826 80.08 243.946 79.76 243.946 79.4C243.946 79.16 243.906 78.9333 243.826 78.72C243.746 78.5067 243.619 78.3133 243.446 78.14C243.286 77.9667 243.072 77.8067 242.806 77.66C242.552 77.5133 242.252 77.3867 241.906 77.28C241.559 77.16 241.159 77.06 240.706 76.98C239.986 76.8333 239.359 76.64 238.826 76.4C238.292 76.16 237.846 75.86 237.486 75.5C237.126 75.14 236.859 74.7333 236.686 74.28C236.512 73.8133 236.426 73.2933 236.426 72.72C236.426 72.16 236.546 71.64 236.786 71.16C237.039 70.68 237.379 70.2667 237.806 69.92C238.246 69.56 238.759 69.2867 239.346 69.1C239.932 68.9 240.566 68.8 241.246 68.8C241.966 68.8 242.626 68.8933 243.226 69.08C243.826 69.2667 244.359 69.5467 244.826 69.92C245.292 70.28 245.679 70.7267 245.986 71.26L244.466 72.76C244.199 72.32 243.899 71.9533 243.566 71.66C243.232 71.3533 242.866 71.1267 242.466 70.98C242.066 70.82 241.639 70.74 241.186 70.74C240.666 70.74 240.212 70.82 239.826 70.98C239.439 71.14 239.132 71.3667 238.906 71.66C238.692 71.94 238.586 72.2733 238.586 72.66C238.586 72.94 238.639 73.2 238.746 73.44C238.852 73.6667 239.012 73.8733 239.226 74.06C239.452 74.2333 239.752 74.3933 240.126 74.54C240.499 74.6733 240.946 74.7933 241.466 74.9C242.199 75.06 242.852 75.2667 243.426 75.52C243.999 75.76 244.486 76.0467 244.886 76.38C245.286 76.7133 245.586 77.0867 245.786 77.5C245.999 77.9133 246.106 78.36 246.106 78.84C246.106 79.7333 245.899 80.5067 245.486 81.16C245.072 81.8133 244.486 82.32 243.726 82.68C242.966 83.0267 242.059 83.2 241.006 83.2ZM278.706 83V69H280.866V83H278.706ZM269.566 83V69H271.726V83H269.566ZM270.506 77.06V74.98H279.666V77.06H270.506ZM311.041 83.2C310.054 83.2 309.141 83.02 308.301 82.66C307.474 82.3 306.748 81.8 306.121 81.16C305.508 80.5067 305.028 79.7467 304.681 78.88C304.348 78 304.181 77.04 304.181 76C304.181 74.96 304.348 74.0067 304.681 73.14C305.028 72.26 305.508 71.5 306.121 70.86C306.748 70.2067 307.474 69.7 308.301 69.34C309.141 68.98 310.054 68.8 311.041 68.8C312.028 68.8 312.934 68.98 313.761 69.34C314.601 69.7 315.328 70.2067 315.941 70.86C316.568 71.5133 317.048 72.28 317.381 73.16C317.728 74.0267 317.901 74.9733 317.901 76C317.901 77.0267 317.728 77.98 317.381 78.86C317.048 79.7267 316.568 80.4867 315.941 81.14C315.328 81.7933 314.601 82.3 313.761 82.66C312.934 83.02 312.028 83.2 311.041 83.2ZM311.041 81.1C311.721 81.1 312.341 80.9733 312.901 80.72C313.474 80.4667 313.968 80.1133 314.381 79.66C314.794 79.1933 315.114 78.6533 315.341 78.04C315.581 77.4133 315.701 76.7333 315.701 76C315.701 75.2667 315.581 74.5933 315.341 73.98C315.114 73.3533 314.794 72.8133 314.381 72.36C313.968 71.8933 313.474 71.5333 312.901 71.28C312.341 71.0267 311.721 70.9 311.041 70.9C310.361 70.9 309.734 71.0267 309.161 71.28C308.601 71.5333 308.108 71.8867 307.681 72.34C307.268 72.7933 306.948 73.3333 306.721 73.96C306.494 74.5733 306.381 75.2533 306.381 76C306.381 76.7333 306.494 77.4133 306.721 78.04C306.948 78.6667 307.268 79.2067 307.681 79.66C308.108 80.1133 308.601 80.4667 309.161 80.72C309.734 80.9733 310.361 81.1 311.041 81.1ZM341.226 83V69H346.926C347.686 69 348.372 69.1933 348.986 69.58C349.612 69.9533 350.112 70.4667 350.486 71.12C350.859 71.7733 351.046 72.5 351.046 73.3C351.046 74.1 350.859 74.8267 350.486 75.48C350.112 76.1333 349.612 76.66 348.986 77.06C348.372 77.4467 347.686 77.64 346.926 77.64H343.386V83H341.226ZM343.386 75.56H346.886C347.246 75.56 347.572 75.46 347.866 75.26C348.159 75.0467 348.392 74.7733 348.566 74.44C348.752 74.0933 348.846 73.7133 348.846 73.3C348.846 72.8867 348.752 72.5133 348.566 72.18C348.392 71.8467 348.159 71.58 347.866 71.38C347.572 71.18 347.246 71.08 346.886 71.08H343.386V75.56Z" fill="white"/>
</svg>
